{
    "asset" : {
        "generator" : "Khronos glTF Blender I/O v3.3.27",
        "version" : "2.0"
    },
    "scene" : 0,
    "scenes" : [
        {
            "name" : "Scene",
            "nodes" : [
                0,
                1,
                2,
                3,
                4,
                5,
                6,
                7
            ]
        }
    ],
    "nodes" : [
        {
            "mesh" : 0,
            "name" : "Circle",
            "rotation" : [
                0.7071068286895752,
                0,
                0,
                0.7071068286895752
            ],
            "translation" : [
                0,
                3.1429688930511475,
                -1.0858055353164673
            ]
        },
        {
            "mesh" : 1,
            "name" : "Circle.001",
            "rotation" : [
                0.7071068286895752,
                0,
                0,
                0.7071068286895752
            ],
            "scale" : [
                1.0278799533843994,
                1.556718349456787,
                1.0278799533843994
            ],
            "translation" : [
                0,
                3.1304702758789062,
                -1.0858055353164673
            ]
        },
        {
            "mesh" : 2,
            "name" : "Circle.003",
            "rotation" : [
                0.7070035338401794,
                0.012087267823517323,
                0.012087267823517323,
                0.7070034146308899
            ],
            "scale" : [
                1.0000662803649902,
                1.0967741012573242,
                1.0552030801773071
            ],
            "translation" : [
                1.0033695697784424,
                2.1481800079345703,
                -1.0858056545257568
            ]
        },
        {
            "name" : "Circle.004",
            "rotation" : [
                0.7071068286895752,
                0,
                0,
                0.7071068286895752
            ],
            "translation" : [
                0,
                3.1429688930511475,
                -1.0858055353164673
            ]
        },
        {
            "mesh" : 3,
            "name" : "Circle.005",
            "rotation" : [
                0.7071068286895752,
                0,
                0,
                0.7071068286895752
            ],
            "translation" : [
                0,
                3.267704486846924,
                -1.0858055353164673
            ]
        },
        {
            "mesh" : 4,
            "name" : "Circle.002",
            "rotation" : [
                0.49782121181488037,
                -0.5021693706512451,
                0.497821182012558,
                0.5021693706512451
            ],
            "scale" : [
                0.5695203542709351,
                0.7096441388130188,
                0.5695203542709351
            ],
            "translation" : [
                -0.6066981554031372,
                1.0424690246582031,
                -1.0811272859573364
            ]
        },
        {
            "mesh" : 5,
            "name" : "Circle.006",
            "rotation" : [
                0.49782121181488037,
                -0.5021693706512451,
                0.497821182012558,
                0.5021693706512451
            ],
            "scale" : [
                0.5404642820358276,
                0.6734392046928406,
                0.5404642820358276
            ],
            "translation" : [
                -0.32126283645629883,
                1.0399867296218872,
                -1.0811272859573364
            ]
        },
        {
            "camera" : 0,
            "name" : "Camera",
            "rotation" : [
                -0.019091805443167686,
                -0.9466055035591125,
                -0.057066116482019424,
                0.3167285621166229
            ],
            "translation" : [
                -5.050487995147705,
                2.7585902214050293,
                -7.940432548522949
            ]
        }
    ],
    "cameras" : [
        {
            "name" : "Camera.001",
            "perspective" : {
                "aspectRatio" : 1.7777777777777777,
                "yfov" : 0.39959652046304894,
                "zfar" : 1000,
                "znear" : 0.10000000149011612
            },
            "type" : "perspective"
        }
    ],
    "materials" : [
        {
            "doubleSided" : true,
            "name" : "Material.003",
            "pbrMetallicRoughness" : {
                "baseColorFactor" : [
                    0.800000011920929,
                    0.800000011920929,
                    0.800000011920929,
                    1
                ],
                "metallicFactor" : 0,
                "roughnessFactor" : 0.14566928148269653
            }
        },
        {
            "doubleSided" : true,
            "name" : "Material.001",
            "pbrMetallicRoughness" : {
                "baseColorFactor" : [
                    0.12823885679244995,
                    0.00616092374548316,
                    0.0012788755120709538,
                    1
                ],
                "metallicFactor" : 0,
                "roughnessFactor" : 0.5984252095222473
            }
        },
        {
            "doubleSided" : true,
            "name" : "Material.002",
            "pbrMetallicRoughness" : {
                "baseColorFactor" : [
                    0.8000000715255737,
                    0.42168766260147095,
                    0.13302721083164215,
                    1
                ],
                "roughnessFactor" : 0.26377952098846436
            }
        }
    ],
    "meshes" : [
        {
            "name" : "Circle",
            "primitives" : [
                {
                    "attributes" : {
                        "POSITION" : 0,
                        "NORMAL" : 1,
                        "TEXCOORD_0" : 2
                    },
                    "indices" : 3,
                    "material" : 0
                }
            ]
        },
        {
            "name" : "Circle.001",
            "primitives" : [
                {
                    "attributes" : {
                        "POSITION" : 4,
                        "NORMAL" : 5,
                        "TEXCOORD_0" : 6
                    },
                    "indices" : 7,
                    "material" : 1
                }
            ]
        },
        {
            "name" : "Circle.003",
            "primitives" : [
                {
                    "attributes" : {
                        "POSITION" : 8,
                        "NORMAL" : 9,
                        "TEXCOORD_0" : 10
                    },
                    "indices" : 11,
                    "material" : 2
                }
            ]
        },
        {
            "name" : "Circle.005",
            "primitives" : [
                {
                    "attributes" : {
                        "POSITION" : 12,
                        "NORMAL" : 13,
                        "TEXCOORD_0" : 14
                    },
                    "indices" : 15,
                    "material" : 0
                }
            ]
        },
        {
            "name" : "Circle.006",
            "primitives" : [
                {
                    "attributes" : {
                        "POSITION" : 16,
                        "NORMAL" : 17,
                        "TEXCOORD_0" : 18
                    },
                    "indices" : 19,
                    "material" : 1
                }
            ]
        },
        {
            "name" : "Circle.008",
            "primitives" : [
                {
                    "attributes" : {
                        "POSITION" : 20,
                        "NORMAL" : 21,
                        "TEXCOORD_0" : 22
                    },
                    "indices" : 23,
                    "material" : 0
                }
            ]
        }
    ],
    "accessors" : [
        {
            "bufferView" : 0,
            "componentType" : 5126,
            "count" : 921,
            "max" : [
                1.0496010780334473,
                0.23609372973442078,
                1.2544304132461548
            ],
            "min" : [
                -1.0496010780334473,
                -0.23609372973442078,
                0
            ],
            "type" : "VEC3"
        },
        {
            "bufferView" : 1,
            "componentType" : 5126,
            "count" : 921,
            "type" : "VEC3"
        },
        {
            "bufferView" : 2,
            "componentType" : 5126,
            "count" : 921,
            "type" : "VEC2"
        },
        {
            "bufferView" : 3,
            "componentType" : 5123,
            "count" : 4830,
            "type" : "SCALAR"
        },
        {
            "bufferView" : 4,
            "componentType" : 5126,
            "count" : 115,
            "max" : [
                0.8635352849960327,
                0.1125565618276596,
                1.196838140487671
            ],
            "min" : [
                -0.8635352849960327,
                -0.1125565618276596,
                0.00028108060359954834
            ],
            "type" : "VEC3"
        },
        {
            "bufferView" : 5,
            "componentType" : 5126,
            "count" : 115,
            "type" : "VEC3"
        },
        {
            "bufferView" : 6,
            "componentType" : 5126,
            "count" : 115,
            "type" : "VEC2"
        },
        {
            "bufferView" : 7,
            "componentType" : 5123,
            "count" : 528,
            "type" : "SCALAR"
        },
        {
            "bufferView" : 8,
            "componentType" : 5126,
            "count" : 167,
            "max" : [
                0.0491638220846653,
                0.07711655646562576,
                0.45909756422042847
            ],
            "min" : [
                -0.055820949375629425,
                -0.07711657136678696,
                -0.3178883194923401
            ],
            "type" : "VEC3"
        },
        {
            "bufferView" : 9,
            "componentType" : 5126,
            "count" : 167,
            "type" : "VEC3"
        },
        {
            "bufferView" : 10,
            "componentType" : 5126,
            "count" : 167,
            "type" : "VEC2"
        },
        {
            "bufferView" : 11,
            "componentType" : 5123,
            "count" : 462,
            "type" : "SCALAR"
        },
        {
            "bufferView" : 12,
            "componentType" : 5126,
            "count" : 172,
            "max" : [
                1.029433250427246,
                0.23609374463558197,
                1.6131352186203003
            ],
            "min" : [
                0.8571339249610901,
                0.08250526338815689,
                1.2321319580078125
            ],
            "type" : "VEC3"
        },
        {
            "bufferView" : 13,
            "componentType" : 5126,
            "count" : 172,
            "type" : "VEC3"
        },
        {
            "bufferView" : 14,
            "componentType" : 5126,
            "count" : 172,
            "type" : "VEC2"
        },
        {
            "bufferView" : 15,
            "componentType" : 5123,
            "count" : 408,
            "type" : "SCALAR"
        },
        {
            "bufferView" : 16,
            "componentType" : 5126,
            "count" : 192,
            "max" : [
                1.1468064785003662,
                0.4382621943950653,
                1.1468064785003662
            ],
            "min" : [
                -1.1468064785003662,
                -0.02470315992832184,
                -1.1468064785003662
            ],
            "type" : "VEC3"
        },
        {
            "bufferView" : 17,
            "componentType" : 5126,
            "count" : 192,
            "type" : "VEC3"
        },
        {
            "bufferView" : 18,
            "componentType" : 5126,
            "count" : 192,
            "type" : "VEC2"
        },
        {
            "bufferView" : 19,
            "componentType" : 5123,
            "count" : 576,
            "type" : "SCALAR"
        },
        {
            "bufferView" : 20,
            "componentType" : 5126,
            "count" : 288,
            "max" : [
                1.2774959802627563,
                1.4238801002502441,
                1.2669891119003296
            ],
            "min" : [
                -1.2774959802627563,
                0.6518491506576538,
                -1.2910923957824707
            ],
            "type" : "VEC3"
        },
        {
            "bufferView" : 21,
            "componentType" : 5126,
            "count" : 288,
            "type" : "VEC3"
        },
        {
            "bufferView" : 22,
            "componentType" : 5126,
            "count" : 288,
            "type" : "VEC2"
        },
        {
            "bufferView" : 23,
            "componentType" : 5123,
            "count" : 1626,
            "type" : "SCALAR"
        }
    ],
    "bufferViews" : [
        {
            "buffer" : 0,
            "byteLength" : 11052,
            "byteOffset" : 0,
            "target" : 34962
        },
        {
            "buffer" : 0,
            "byteLength" : 11052,
            "byteOffset" : 11052,
            "target" : 34962
        },
        {
            "buffer" : 0,
            "byteLength" : 7368,
            "byteOffset" : 22104,
            "target" : 34962
        },
        {
            "buffer" : 0,
            "byteLength" : 9660,
            "byteOffset" : 29472,
            "target" : 34963
        },
        {
            "buffer" : 0,
            "byteLength" : 1380,
            "byteOffset" : 39132,
            "target" : 34962
        },
        {
            "buffer" : 0,
            "byteLength" : 1380,
            "byteOffset" : 40512,
            "target" : 34962
        },
        {
            "buffer" : 0,
            "byteLength" : 920,
            "byteOffset" : 41892,
            "target" : 34962
        },
        {
            "buffer" : 0,
            "byteLength" : 1056,
            "byteOffset" : 42812,
            "target" : 34963
        },
        {
            "buffer" : 0,
            "byteLength" : 2004,
            "byteOffset" : 43868,
            "target" : 34962
        },
        {
            "buffer" : 0,
            "byteLength" : 2004,
            "byteOffset" : 45872,
            "target" : 34962
        },
        {
            "buffer" : 0,
            "byteLength" : 1336,
            "byteOffset" : 47876,
            "target" : 34962
        },
        {
            "buffer" : 0,
            "byteLength" : 924,
            "byteOffset" : 49212,
            "target" : 34963
        },
        {
            "buffer" : 0,
            "byteLength" : 2064,
            "byteOffset" : 50136,
            "target" : 34962
        },
        {
            "buffer" : 0,
            "byteLength" : 2064,
            "byteOffset" : 52200,
            "target" : 34962
        },
        {
            "buffer" : 0,
            "byteLength" : 1376,
            "byteOffset" : 54264,
            "target" : 34962
        },
        {
            "buffer" : 0,
            "byteLength" : 816,
            "byteOffset" : 55640,
            "target" : 34963
        },
        {
            "buffer" : 0,
            "byteLength" : 2304,
            "byteOffset" : 56456,
            "target" : 34962
        },
        {
            "buffer" : 0,
            "byteLength" : 2304,
            "byteOffset" : 58760,
            "target" : 34962
        },
        {
            "buffer" : 0,
            "byteLength" : 1536,
            "byteOffset" : 61064,
            "target" : 34962
        },
        {
            "buffer" : 0,
            "byteLength" : 1152,
            "byteOffset" : 62600,
            "target" : 34963
        },
        {
            "buffer" : 0,
            "byteLength" : 3456,
            "byteOffset" : 63752,
            "target" : 34962
        },
        {
            "buffer" : 0,
            "byteLength" : 3456,
            "byteOffset" : 67208,
            "target" : 34962
        },
        {
            "buffer" : 0,
            "byteLength" : 2304,
            "byteOffset" : 70664,
            "target" : 34962
        },
        {
            "buffer" : 0,
            "byteLength" : 3252,
            "byteOffset" : 72968,
            "target" : 34963
        }
    ],
    "buffers" : [
        {
            "byteLength" : 76220,
            "uri" : "\u044b\u0432.bin"
        }
    ]
}
